<svg width="26" height="20" viewBox="0 0 26 20" fill="none" xmlns="http://www.w3.org/2000/svg">
<path d="M25.0714 0H0.928571C0.414955 0 0 0.3875 0 0.867132V18.2098C0 18.6894 0.414955 19.0769 0.928571 19.0769H25.0714C25.585 19.0769 26 18.6894 26 18.2098V0.867132C26 0.3875 25.585 0 25.0714 0ZM23.9107 3.00244V17.1259H2.08929V3.00244L1.28839 2.41984L2.42879 1.0514L3.67076 1.95376H22.3321L23.5741 1.0514L24.7145 2.41984L23.9107 3.00244ZM22.3321 1.95105L13 8.72552L3.66786 1.95105L2.42589 1.04869L1.28549 2.41713L2.08638 2.99974L11.9989 10.1969C12.284 10.4037 12.6347 10.516 12.9956 10.516C13.3566 10.516 13.7073 10.4037 13.9924 10.1969L23.9107 3.00244L24.7116 2.41984L23.5712 1.0514L22.3321 1.95105Z" fill="#15854F"/>
</svg>
