<svg width="26" height="25" viewBox="0 0 26 25" fill="none" xmlns="http://www.w3.org/2000/svg">
<path d="M13 24.8C10.4288 24.8 7.91543 24.0728 5.77759 22.7103C3.63975 21.3477 1.97351 19.4111 0.989572 17.1453C0.00563268 14.8795 -0.251811 12.3863 0.249797 9.9809C0.751405 7.57554 1.98953 5.36606 3.80762 3.63189C5.6257 1.89771 7.94208 0.716726 10.4638 0.238269C12.9856 -0.240189 15.5994 0.00537272 17.9749 0.943901C20.3503 1.88243 22.3806 3.47177 23.8091 5.51094C25.2376 7.55012 26 9.94753 26 12.4C26 15.6887 24.6304 18.8427 22.1924 21.1682C19.7544 23.4936 16.4478 24.8 13 24.8ZM13 1.77144C10.7962 1.77144 8.6418 2.39479 6.80936 3.56268C4.97693 4.73056 3.54872 6.39052 2.70535 8.33264C1.86197 10.2748 1.64131 12.4118 2.07126 14.4736C2.5012 16.5353 3.56246 18.4291 5.12081 19.9156C6.67917 21.402 8.66464 22.4143 10.8261 22.8244C12.9876 23.2345 15.2281 23.024 17.2642 22.2196C19.3003 21.4151 21.0406 20.0528 22.2649 18.305C23.4893 16.5571 24.1429 14.5022 24.1429 12.4C24.1429 9.58115 22.9689 6.87773 20.8792 4.88448C18.7895 2.89123 15.9553 1.77144 13 1.77144Z" fill="#15854F"/>
<path d="M16.7914 18.8923L12 14.2713V6.49231H13.7143V13.5851L18 17.7267L16.7914 18.8923Z" fill="#15854F"/>
</svg>
