<svg width="27" height="20" viewBox="0 0 27 20" fill="none" xmlns="http://www.w3.org/2000/svg">
<path d="M11.6667 19.077C11.6667 19.077 10 19.077 10 17.4873C10 15.8975 11.6667 11.1283 18.3333 11.1283C25 11.1283 26.6667 15.8975 26.6667 17.4873C26.6667 19.077 25 19.077 25 19.077H11.6667ZM18.3333 9.53851C19.6594 9.53851 20.9312 9.03604 21.8689 8.14163C22.8066 7.24722 23.3333 6.03414 23.3333 4.76926C23.3333 3.50437 22.8066 2.29129 21.8689 1.39688C20.9312 0.502474 19.6594 0 18.3333 0C17.0073 0 15.7355 0.502474 14.7978 1.39688C13.8601 2.29129 13.3333 3.50437 13.3333 4.76926C13.3333 6.03414 13.8601 7.24722 14.7978 8.14163C15.7355 9.03604 17.0073 9.53851 18.3333 9.53851Z" fill="#15854F"/>
<path fill-rule="evenodd" clip-rule="evenodd" d="M8.69333 19.0769C8.44626 18.5806 8.32304 18.0365 8.33333 17.4871C8.33333 15.333 9.46667 13.1153 11.56 11.5733C10.5152 11.2662 9.42658 11.116 8.33333 11.1281C1.66667 11.1281 0 15.8974 0 17.4871C0 19.0769 1.66667 19.0769 1.66667 19.0769H8.69333Z" fill="#15854F"/>
<path d="M7.50018 9.53857C8.60526 9.53857 9.66507 9.11984 10.4465 8.37449C11.2279 7.62914 11.6669 6.61823 11.6669 5.56415C11.6669 4.51006 11.2279 3.49915 10.4465 2.7538C9.66507 2.00845 8.60526 1.58972 7.50018 1.58972C6.39511 1.58972 5.3353 2.00845 4.55389 2.7538C3.77249 3.49915 3.3335 4.51006 3.3335 5.56415C3.3335 6.61823 3.77249 7.62914 4.55389 8.37449C5.3353 9.11984 6.39511 9.53857 7.50018 9.53857Z" fill="#15854F"/>
</svg>
