<svg width="590" height="441" viewBox="0 0 590 441" fill="none" xmlns="http://www.w3.org/2000/svg">
<path d="M0 30.0708C0 17.8961 10.8068 8.56402 22.893 10.0291C233.155 35.5169 356.226 -14.3701 572.054 5.23009C582.239 6.15501 590 14.7584 590 24.9851V421C590 432.046 581.046 441 570 441H20C8.9543 441 0 432.046 0 421V30.0708Z" fill="#0C6D3C"/>
<g opacity="0.11">
<path d="M412.062 210.106C412.062 205.442 410.12 200.968 406.662 197.67C403.205 194.372 398.515 192.519 393.625 192.519C388.735 192.519 384.045 194.372 380.588 197.67C377.13 200.968 375.188 205.442 375.188 210.106H387.479C387.479 208.551 388.127 207.06 389.279 205.961C390.432 204.861 391.995 204.244 393.625 204.244C395.255 204.244 396.818 204.861 397.971 205.961C399.123 207.06 399.771 208.551 399.771 210.106H412.062Z" fill="black"/>
<path d="M467.375 204.244C469.005 204.244 470.568 204.861 471.721 205.961C472.873 207.06 473.521 208.551 473.521 210.106H485.812C485.812 205.442 483.87 200.968 480.412 197.67C476.955 194.372 472.265 192.519 467.375 192.519C462.485 192.519 457.795 194.372 454.338 197.67C450.88 200.968 448.938 205.442 448.938 210.106H461.229C461.229 208.551 461.877 207.06 463.029 205.961C464.182 204.861 465.745 204.244 467.375 204.244Z" fill="black"/>
<path d="M536.761 330.046L461.229 311.111V292.176C473.905 287.103 484.997 279.001 493.436 268.651C501.875 258.302 507.378 246.053 509.413 233.086C514.595 232.272 519.47 230.196 523.565 227.059C527.66 223.923 530.838 219.831 532.791 215.181C534.744 210.53 535.405 205.477 534.712 200.511C534.019 195.545 531.994 190.834 528.833 186.833V180.795C528.833 155.919 518.473 132.062 500.032 114.472C481.591 96.8819 456.58 87 430.5 87C404.42 87 379.409 96.8819 360.968 114.472C342.527 132.062 332.167 155.919 332.167 180.795V186.833C328.191 191.846 326.034 197.958 326.021 204.244C326.012 211.16 328.576 217.856 333.258 223.137C337.94 228.419 344.436 231.944 351.588 233.086C353.631 246.05 359.137 258.295 367.575 268.643C376.013 278.992 387.1 287.096 399.771 292.176V311.111L324.177 330.046C312.381 333.051 301.953 339.683 294.509 348.914C287.064 358.145 283.019 369.46 283 381.106V432.869C283 434.423 283.648 435.914 284.8 437.014C285.953 438.113 287.516 438.731 289.146 438.731H571.854C573.484 438.731 575.047 438.113 576.2 437.014C577.353 435.914 578 434.423 578 432.869V381.106C577.979 369.451 573.926 358.13 566.47 348.897C559.013 339.665 548.57 333.038 536.761 330.046ZM522.688 204.244C522.685 208.895 520.764 213.359 517.341 216.671C515.377 218.504 513.002 219.887 510.396 220.716V187.712C513.977 188.929 517.079 191.169 519.278 194.127C521.477 197.085 522.668 200.617 522.688 204.244ZM350.604 220.775C348.039 219.899 345.695 218.521 343.721 216.73C341.518 214.63 339.909 212.032 339.043 209.178C338.178 206.324 338.085 203.308 338.772 200.41C339.459 197.513 340.905 194.829 342.974 192.608C345.043 190.388 347.668 188.703 350.604 187.712V220.775ZM344.643 177.336C345.315 161.417 350.84 146.029 360.541 133.059C370.243 120.09 383.699 110.1 399.262 104.314C414.825 98.5275 431.819 97.1962 448.164 100.483C464.508 103.77 479.493 111.531 491.282 122.818C506.598 137.293 515.563 156.785 516.357 177.336C512.536 175.754 508.416 174.936 504.25 174.933H488.762L466.023 147.849C465.492 147.201 464.823 146.668 464.06 146.284C463.298 145.9 462.459 145.674 461.598 145.622C460.729 145.58 459.86 145.71 459.046 146.002C458.232 146.294 457.49 146.744 456.866 147.322L430.5 172.529L404.134 147.322C403.51 146.744 402.768 146.294 401.954 146.002C401.14 145.71 400.271 145.58 399.402 145.622C398.541 145.674 397.702 145.9 396.94 146.284C396.177 146.668 395.508 147.201 394.977 147.849L372.238 174.933H356.75C352.585 174.943 348.466 175.761 344.643 177.336ZM362.896 221.83V186.657H375.188C376.111 186.653 377.021 186.451 377.851 186.065C378.681 185.679 379.409 185.12 379.981 184.429L400.263 160.277L426.136 184.957C427.297 186.055 428.865 186.672 430.5 186.672C432.135 186.672 433.703 186.055 434.864 184.957L460.737 160.277L481.019 184.429C481.591 185.12 482.319 185.679 483.149 186.065C483.979 186.451 484.889 186.653 485.812 186.657H498.104V221.83C498.104 238.932 490.982 255.334 478.303 267.427C465.625 279.52 448.43 286.314 430.5 286.314C412.57 286.314 395.375 279.52 382.697 267.427C370.018 255.334 362.896 238.932 362.896 221.83ZM457.357 322.249L461.229 323.246V357.422L439.473 343.588L457.357 322.249ZM430.5 335.556L412.062 313.573V295.928C424.177 298.742 436.823 298.742 448.938 295.928V313.573L430.5 335.556ZM399.771 323.246L403.643 322.249L421.527 343.588L399.771 357.422V323.246ZM565.708 427.006H295.292V381.106C295.308 372.052 298.454 363.256 304.243 356.081C310.032 348.906 318.14 343.752 327.311 341.419L387.479 326.294V368.385C387.485 369.44 387.789 370.475 388.36 371.379C388.932 372.284 389.748 373.024 390.724 373.522C391.699 374.021 392.798 374.258 393.904 374.211C395.009 374.163 396.081 373.831 397.005 373.25L424.354 355.898V368.385H418.208V380.109H424.354V391.833H418.208V403.558H424.354V415.282H436.646V403.558H442.792V391.833H436.646V380.109H442.792V368.385H436.646V355.898L463.995 373.25C464.919 373.831 465.991 374.163 467.096 374.211C468.202 374.258 469.301 374.021 470.276 373.522C471.252 373.024 472.068 372.284 472.64 371.379C473.211 370.475 473.515 369.44 473.521 368.385V326.294L533.627 341.419C542.811 343.739 550.934 348.888 556.735 356.064C562.536 363.241 565.691 372.044 565.708 381.106V427.006Z" fill="black"/>
<path d="M461.229 245.279H448.938C448.938 246.738 442.399 251.141 430.5 251.141C418.602 251.141 412.063 246.738 412.063 245.279H399.771C399.771 255.303 412.978 262.865 430.5 262.865C448.022 262.865 461.229 255.303 461.229 245.279Z" fill="black"/>
</g>
</svg>
