<svg width="374" height="231" viewBox="0 0 374 231" fill="none" xmlns="http://www.w3.org/2000/svg">
<path d="M0 20.5689C0 9.98288 8.29228 1.20544 18.8699 0.782777C146.703 -4.32522 224.451 17.7466 351.286 4.42411C363.312 3.1609 374 12.461 374 24.5535V211C374 222.046 365.046 231 354 231H20C8.9543 231 0 222.046 0 211V20.5689Z" fill="#0C6D3C"/>
<g opacity="0.11" clip-path="url(#clip0_0_1)">
<path d="M265.145 53.6796L259.517 51.8506C257.962 51.3468 256.293 52.1962 255.788 53.7499C255.283 55.3043 256.134 56.9736 257.688 57.479L263.316 59.308C263.62 59.4066 263.928 59.4536 264.231 59.4536C265.479 59.4536 266.639 58.6586 267.045 57.4083C267.55 55.8543 266.699 54.1846 265.145 53.6796Z" fill="black"/>
<path d="M271.013 44.2016L266.226 40.723C264.903 39.7612 263.053 40.0551 262.093 41.3775C261.132 42.6996 261.425 44.55 262.747 45.5106L267.535 48.9892C268.06 49.3711 268.669 49.555 269.272 49.555C270.186 49.555 271.089 49.132 271.668 48.3347C272.629 47.0126 272.335 45.1623 271.013 44.2016Z" fill="black"/>
<path d="M279.523 37.0009L276.045 32.2129C275.085 30.8912 273.234 30.5973 271.912 31.5583C270.59 32.519 270.297 34.369 271.257 35.6914L274.735 40.4795C275.315 41.2764 276.217 41.6997 277.132 41.6997C277.735 41.6997 278.343 41.5159 278.869 41.134C280.191 40.1733 280.484 38.3233 279.523 37.0009Z" fill="black"/>
<path d="M324.089 31.5584C322.766 30.5965 320.916 30.8908 319.956 32.2129L316.478 37.0009C315.517 38.3234 315.811 40.1733 317.133 41.134C317.658 41.5159 318.267 41.6998 318.869 41.6998C319.784 41.6998 320.687 41.2764 321.266 40.4795L324.744 35.6915C325.705 34.369 325.411 32.519 324.089 31.5584Z" fill="black"/>
<path d="M333.908 41.3774C332.948 40.0553 331.098 39.7626 329.775 40.7228L324.988 44.2014C323.666 45.1621 323.372 47.0124 324.333 48.3345C324.912 49.1319 325.814 49.5548 326.73 49.5548C327.332 49.5548 327.941 49.3706 328.466 48.989L333.254 45.5105C334.576 44.5498 334.869 42.6994 333.908 41.3774Z" fill="black"/>
<path d="M340.213 53.7505C339.708 52.1968 338.038 51.347 336.484 51.8512L330.856 53.6803C329.302 54.1849 328.451 55.8541 328.956 57.4086C329.363 58.6589 330.523 59.4538 331.77 59.4538C332.073 59.4538 332.381 59.4069 332.685 59.3083L338.313 57.4792C339.867 56.9742 340.718 55.3046 340.213 53.7505Z" fill="black"/>
<path d="M334.495 76.3433H329.535V67.4663C329.535 65.8318 328.211 64.5074 326.576 64.5074C324.942 64.5074 323.617 65.8318 323.617 67.4663V79.3023C323.617 80.9368 324.942 82.2612 326.576 82.2612H334.495C339.933 82.2612 344.358 86.6859 344.358 92.1245C344.358 97.5631 339.933 101.988 334.495 101.988H318.3C317.008 97.4396 312.82 94.0972 307.864 94.0972H288.137C283.181 94.0972 278.993 97.4396 277.701 101.988H261.506C256.068 101.988 251.643 97.5631 251.643 92.1245C251.643 86.6859 256.068 82.2612 261.506 82.2612H269.425C271.059 82.2612 272.384 80.9368 272.384 79.3023V67.4663C272.384 65.8318 271.059 64.5074 269.425 64.5074C267.791 64.5074 266.466 65.8318 266.466 67.4663V76.3433H261.506C252.805 76.3433 245.725 83.4227 245.725 92.1245C245.725 100.826 252.805 107.906 261.506 107.906H277.288V131.482C273.464 136.212 271.37 142.109 271.37 148.213V168.072C271.37 169.706 272.695 171.031 274.329 171.031H282.683C282.612 171.212 282.534 171.395 282.453 171.588C281.909 172.874 281.233 174.474 281.233 177.408C281.233 180.342 281.909 181.942 282.453 183.228C282.89 184.262 283.206 185.01 283.206 186.745C283.206 188.48 282.89 189.227 282.453 190.262C281.909 191.547 281.233 193.148 281.233 196.081C281.233 199.015 281.909 200.615 282.453 201.901C282.89 202.936 283.206 203.684 283.206 205.418C283.206 207.153 282.89 207.901 282.453 208.936C281.909 210.222 281.233 211.823 281.233 214.757C281.233 217.691 281.909 219.291 282.453 220.577C282.666 221.082 282.851 221.519 282.984 222.036L273.393 225.233C271.842 225.75 271.005 227.426 271.521 228.976C271.935 230.216 273.089 231 274.328 231C274.638 231 274.954 230.951 275.264 230.847L287.1 226.902C288.309 226.499 289.123 225.368 289.123 224.095C289.123 221.161 288.447 219.56 287.904 218.274C287.467 217.239 287.151 216.492 287.151 214.757C287.151 213.022 287.467 212.274 287.904 211.239C288.447 209.953 289.123 208.352 289.123 205.418C289.123 202.485 288.447 200.884 287.904 199.598C287.467 198.564 287.151 197.816 287.151 196.081C287.151 194.347 287.466 193.599 287.904 192.565C288.447 191.279 289.123 189.679 289.123 186.745C289.123 183.811 288.447 182.21 287.904 180.925C287.467 179.89 287.151 179.143 287.151 177.408C287.151 175.673 287.467 174.926 287.904 173.891C288.228 173.124 288.599 172.24 288.846 171.031H307.154C307.401 172.241 307.772 173.124 308.097 173.893C308.534 174.927 308.85 175.675 308.85 177.41C308.85 179.145 308.534 179.893 308.097 180.927C307.553 182.214 306.877 183.814 306.877 186.748C306.877 189.682 307.553 191.282 308.097 192.568C308.534 193.603 308.85 194.351 308.85 196.085C308.85 197.82 308.534 198.567 308.097 199.602C307.553 200.887 306.877 202.488 306.877 205.422C306.877 208.356 307.553 209.956 308.097 211.242C308.534 212.276 308.85 213.024 308.85 214.758C308.85 216.493 308.534 217.241 308.097 218.275C307.553 219.561 306.877 221.161 306.877 224.095C306.877 225.369 307.692 226.5 308.9 226.902L320.736 230.847C321.047 230.951 321.362 231 321.672 231C322.911 231 324.066 230.216 324.479 228.976C324.996 227.426 324.158 225.75 322.607 225.233L313.017 222.036C313.15 221.52 313.334 221.083 313.548 220.578C314.091 219.293 314.767 217.693 314.767 214.758C314.767 211.824 314.091 210.224 313.548 208.938C313.111 207.904 312.795 207.156 312.795 205.422C312.795 203.687 313.111 202.939 313.548 201.905C314.091 200.619 314.767 199.019 314.767 196.085C314.767 193.152 314.091 191.551 313.548 190.265C313.111 189.231 312.795 188.483 312.795 186.748C312.795 185.013 313.111 184.266 313.548 183.231C314.091 181.944 314.767 180.344 314.767 177.41C314.767 174.476 314.091 172.875 313.548 171.589C313.466 171.396 313.388 171.212 313.317 171.031H321.672C323.306 171.031 324.631 169.706 324.631 168.072V148.213C324.631 142.109 322.537 136.212 318.713 131.482V107.906H334.494C343.196 107.906 350.275 100.826 350.275 92.1245C350.275 83.4227 343.196 76.3433 334.495 76.3433ZM283.206 104.947C283.206 102.227 285.418 100.015 288.137 100.015H307.864C310.583 100.015 312.795 102.227 312.795 104.947V129.605H283.206V104.947ZM318.713 148.213V165.113H277.288V148.213C277.288 143.602 278.828 139.146 281.643 135.523H314.358C317.173 139.146 318.713 143.602 318.713 148.213Z" fill="black"/>
<path d="M313.871 54.175C313.79 54.0685 313.704 53.9655 313.607 53.8684C311.722 51.7135 309.416 49.9563 306.812 48.7273C308.691 46.6312 309.836 43.8655 309.836 40.8359C309.836 34.3096 304.527 29 298.001 29C291.474 29 286.165 34.3096 286.165 40.8359C286.165 43.8655 287.31 46.6312 289.189 48.7273C286.585 49.9563 284.279 51.7135 282.405 53.8586C282.297 53.9651 282.211 54.0685 282.131 54.175C279.111 57.7751 277.288 62.4112 277.288 67.4663C277.288 78.8872 286.579 88.1792 298.001 88.1792C309.422 88.1792 318.713 78.8872 318.713 67.4663C318.713 62.4112 316.89 57.7751 313.871 54.175ZM298.001 34.9176C301.264 34.9176 303.918 37.5724 303.918 40.8355C303.918 44.0987 301.264 46.7535 298.001 46.7535C294.737 46.7535 292.083 44.0987 292.083 40.8355C292.083 37.5724 294.737 34.9176 298.001 34.9176ZM298.001 52.6714C301.422 52.6714 304.574 53.8424 307.083 55.8005C301.623 59.5169 294.378 59.5169 288.918 55.8005C291.427 53.8424 294.579 52.6714 298.001 52.6714ZM298.001 82.2612C289.842 82.2612 283.206 75.6244 283.206 67.4663C283.206 64.8754 283.877 62.4392 285.052 60.319C288.899 63.1091 293.449 64.507 298.001 64.507C302.552 64.507 307.102 63.1091 310.949 60.319C312.124 62.4392 312.795 64.8754 312.795 67.4663C312.795 75.6244 306.159 82.2612 298.001 82.2612Z" fill="black"/>
</g>
<defs>
<clipPath id="clip0_0_1">
<rect width="106" height="202" fill="white" transform="translate(245 29)"/>
</clipPath>
</defs>
</svg>
