<svg width="374" height="231" viewBox="0 0 374 231" fill="none" xmlns="http://www.w3.org/2000/svg">
<path d="M0 25.8964C0 13.9171 10.4995 4.65191 22.4303 5.72733C148.705 17.1094 225.834 -6.7638 355.695 1.96325C366.038 2.65832 374 11.3355 374 21.7016V211C374 222.046 365.046 231 354 231H20C8.9543 231 0 222.046 0 211V25.8964Z" fill="#0C6D3C"/>
<g opacity="0.11">
<path d="M270.358 88.6499C270.358 85.7458 269.149 82.9606 266.996 80.9071C264.843 78.8536 261.923 77.6999 258.878 77.6999C255.834 77.6999 252.914 78.8536 250.761 80.9071C248.608 82.9606 247.398 85.7458 247.398 88.6499H255.052C255.052 87.6819 255.455 86.7535 256.172 86.069C256.89 85.3845 257.863 84.9999 258.878 84.9999C259.893 84.9999 260.866 85.3845 261.584 86.069C262.302 86.7535 262.705 87.6819 262.705 88.6499H270.358Z" fill="black"/>
<path d="M304.798 84.9999C305.813 84.9999 306.786 85.3845 307.504 86.069C308.222 86.7535 308.625 87.6819 308.625 88.6499H316.278C316.278 85.7458 315.069 82.9606 312.916 80.9071C310.763 78.8536 307.843 77.6999 304.798 77.6999C301.754 77.6999 298.834 78.8536 296.681 80.9071C294.528 82.9606 293.318 85.7458 293.318 88.6499H300.972C300.972 87.6819 301.375 86.7535 302.092 86.069C302.81 85.3845 303.783 84.9999 304.798 84.9999Z" fill="black"/>
<path d="M348.001 163.329L300.972 151.54V139.75C308.864 136.591 315.77 131.547 321.025 125.103C326.279 118.658 329.705 111.032 330.972 102.958C334.199 102.451 337.234 101.159 339.784 99.2059C342.334 97.253 344.313 94.7055 345.529 91.8098C346.744 88.9142 347.157 85.7682 346.725 82.6762C346.293 79.5842 345.032 76.6508 343.064 74.1595V70.4C343.064 54.9114 336.614 40.0571 325.132 29.105C313.65 18.1528 298.077 12 281.839 12C265.601 12 250.028 18.1528 238.546 29.105C227.063 40.0571 220.613 54.9114 220.613 70.4V74.1595C218.137 77.281 216.794 81.0861 216.786 85C216.781 89.3066 218.377 93.4753 221.293 96.7639C224.208 100.052 228.252 102.247 232.705 102.958C233.977 111.03 237.405 118.654 242.659 125.098C247.913 131.541 254.817 136.587 262.706 139.75V151.54L215.638 163.329C208.294 165.2 201.801 169.329 197.166 175.077C192.531 180.824 190.012 187.869 190 195.12V227.35C190 228.318 190.403 229.246 191.121 229.931C191.838 230.615 192.812 231 193.827 231H369.851C370.866 231 371.839 230.615 372.557 229.931C373.274 229.246 373.677 228.318 373.677 227.35V195.12C373.664 187.864 371.141 180.815 366.498 175.066C361.855 169.318 355.353 165.192 348.001 163.329ZM339.238 85C339.236 87.8962 338.04 90.6756 335.909 92.738C334.686 93.8791 333.207 94.7402 331.585 95.2565V74.707C333.815 75.4646 335.746 76.8592 337.115 78.7009C338.484 80.5426 339.226 82.7421 339.238 85ZM232.093 95.293C230.496 94.7477 229.036 93.8898 227.807 92.7745C226.435 91.4669 225.433 89.8492 224.895 88.0723C224.356 86.2955 224.298 84.4174 224.726 82.6133C225.154 80.8092 226.054 79.1379 227.342 77.7553C228.63 76.3728 230.265 75.3241 232.093 74.707V95.293ZM228.381 68.2465C228.8 58.3344 232.24 48.7538 238.28 40.6783C244.32 32.6027 252.699 26.3827 262.389 22.7801C272.079 19.1774 282.66 18.3485 292.837 20.3949C303.013 22.4413 312.343 27.2741 319.684 34.3015C329.22 43.3139 334.802 55.4506 335.296 68.2465C332.917 67.2615 330.352 66.7522 327.758 66.75H318.115L303.957 49.887C303.626 49.4834 303.21 49.1512 302.735 48.9121C302.26 48.673 301.737 48.5326 301.201 48.5C300.66 48.474 300.12 48.5546 299.613 48.7367C299.106 48.9188 298.644 49.1986 298.255 49.5585L281.839 65.2535L265.423 49.5585C265.034 49.1986 264.572 48.9188 264.065 48.7367C263.558 48.5546 263.017 48.474 262.476 48.5C261.94 48.5326 261.418 48.673 260.943 48.9121C260.468 49.1512 260.051 49.4834 259.721 49.887L245.562 66.75H235.919C233.326 66.7564 230.761 67.2655 228.381 68.2465ZM239.746 95.95V74.05H247.399C247.974 74.0475 248.541 73.9215 249.057 73.6814C249.574 73.4412 250.028 73.0932 250.384 72.663L263.012 57.625L279.122 72.9915C279.844 73.6753 280.821 74.0591 281.839 74.0591C282.857 74.0591 283.833 73.6753 284.556 72.9915L300.666 57.625L313.293 72.663C313.65 73.0932 314.103 73.4412 314.62 73.6814C315.137 73.9215 315.703 74.0475 316.278 74.05H323.931V95.95C323.931 106.598 319.497 116.811 311.603 124.34C303.709 131.87 293.002 136.1 281.839 136.1C270.675 136.1 259.969 131.87 252.075 124.34C244.181 116.811 239.746 106.598 239.746 95.95ZM298.561 158.475L300.972 159.095V180.375L287.426 171.761L298.561 158.475ZM281.839 166.76L270.359 153.073V142.086C277.902 143.838 285.776 143.838 293.319 142.086V153.073L281.839 166.76ZM262.706 159.095L265.116 158.475L276.252 171.761L262.706 180.375V159.095ZM366.024 223.7H197.653V195.12C197.663 189.483 199.622 184.007 203.227 179.539C206.831 175.072 211.88 171.863 217.59 170.41L255.052 160.993V187.2C255.056 187.857 255.246 188.501 255.601 189.065C255.957 189.628 256.465 190.089 257.073 190.399C257.68 190.709 258.364 190.857 259.053 190.827C259.741 190.798 260.408 190.591 260.984 190.23L278.012 179.426V187.2H274.185V194.5H278.012V201.8H274.185V209.1H278.012V216.4H285.665V209.1H289.492V201.8H285.665V194.5H289.492V187.2H285.665V179.426L302.694 190.23C303.269 190.591 303.936 190.798 304.625 190.827C305.313 190.857 305.997 190.709 306.605 190.399C307.212 190.089 307.721 189.628 308.076 189.065C308.432 188.501 308.621 187.857 308.625 187.2V160.993L346.049 170.41C351.767 171.855 356.825 175.061 360.437 179.529C364.049 183.997 366.013 189.478 366.024 195.12V223.7Z" fill="black"/>
<path d="M300.971 110.55H293.318C293.318 111.459 289.246 114.2 281.838 114.2C274.43 114.2 270.358 111.459 270.358 110.55H262.705C262.705 116.791 270.928 121.5 281.838 121.5C292.748 121.5 300.971 116.791 300.971 110.55Z" fill="black"/>
</g>
</svg>
