<svg width="590" height="438" viewBox="0 0 590 438" fill="none" xmlns="http://www.w3.org/2000/svg">
<path d="M0 22.6282C0 12.133 8.14759 3.40355 18.6259 2.81C231.238 -9.23345 355.443 36.6159 566.789 7.45356C578.976 5.772 590 15.1403 590 27.4425V418C590 429.046 581.046 438 570 438H20C8.9543 438 0 429.046 0 418V22.6282Z" fill="#0C6D3C"/>
<g opacity="0.11" clip-path="url(#clip0_0_1)">
<path d="M347.639 79.8484L336.271 76.1541C333.13 75.1365 329.76 76.8522 328.74 79.9903C327.72 83.13 329.439 86.5015 332.577 87.5223L343.946 91.2166C344.559 91.4158 345.182 91.5107 345.794 91.5107C348.313 91.5107 350.656 89.905 351.476 87.3797C352.496 84.2408 350.779 80.8684 347.639 79.8484Z" fill="black"/>
<path d="M359.493 60.7043L349.823 53.6783C347.151 51.7355 343.414 52.3292 341.475 55.0003C339.534 57.6706 340.125 61.408 342.797 63.3484L352.467 70.3744C353.528 71.1458 354.757 71.5171 355.974 71.5171C357.822 71.5171 359.645 70.6629 360.815 69.0524C362.755 66.3821 362.163 62.6447 359.493 60.7043Z" fill="black"/>
<path d="M376.681 46.1598L369.656 36.4889C367.716 33.8194 363.978 33.2257 361.308 35.1669C358.638 37.1073 358.045 40.8439 359.985 43.515L367.01 53.1858C368.18 54.7955 370.003 55.6506 371.85 55.6506C373.068 55.6506 374.298 55.2792 375.358 54.5079C378.029 52.5675 378.621 48.8309 376.681 46.1598Z" fill="black"/>
<path d="M466.694 35.1669C464.023 33.2242 460.286 33.8186 458.346 36.4889L451.321 46.1598C449.381 48.8309 449.974 52.5675 452.644 54.5078C453.705 55.2792 454.934 55.6506 456.152 55.6506C458 55.6506 459.823 54.7955 460.992 53.1858L468.017 43.515C469.958 40.8439 469.365 37.1073 466.694 35.1669Z" fill="black"/>
<path d="M486.528 55.0003C484.588 52.33 480.851 51.7387 478.18 53.6783L468.51 60.7043C465.839 62.6447 465.247 66.3821 467.188 69.0524C468.358 70.6629 470.179 71.5171 472.028 71.5171C473.246 71.5171 474.475 71.145 475.536 70.3744L485.206 63.3484C487.876 61.408 488.468 57.6706 486.528 55.0003Z" fill="black"/>
<path d="M499.261 79.9911C498.241 76.853 494.87 75.1365 491.73 76.1549L480.362 79.8492C477.224 80.8684 475.506 84.24 476.526 87.3797C477.346 89.905 479.689 91.5107 482.208 91.5107C482.82 91.5107 483.442 91.4158 484.056 91.2166L495.424 87.5223C498.563 86.5023 500.281 83.1299 499.261 79.9911Z" fill="black"/>
<path d="M487.712 125.624H477.695V107.694C477.695 104.393 475.019 101.718 471.719 101.718C468.418 101.718 465.742 104.393 465.742 107.694V131.601C465.742 134.902 468.418 137.577 471.719 137.577H487.712C498.697 137.577 507.634 146.514 507.634 157.499C507.634 168.484 498.697 177.421 487.712 177.421H455.002C452.393 168.234 443.934 161.483 433.923 161.483H394.079C384.068 161.483 375.609 168.234 373 177.421H340.29C329.306 177.421 320.369 168.484 320.369 157.499C320.369 146.514 329.306 137.577 340.29 137.577H356.284C359.584 137.577 362.26 134.902 362.26 131.601V107.694C362.26 104.393 359.584 101.718 356.284 101.718C352.983 101.718 350.307 104.393 350.307 107.694V125.624H340.29C322.715 125.624 308.415 139.923 308.415 157.499C308.415 175.075 322.715 189.374 340.29 189.374H372.165V236.994C364.441 246.548 360.212 258.458 360.212 270.786V310.897C360.212 314.199 362.888 316.874 366.189 316.874H383.063C382.918 317.24 382.762 317.61 382.597 318C381.5 320.597 380.134 323.829 380.134 329.755C380.134 335.681 381.5 338.913 382.597 341.51C383.48 343.599 384.118 345.109 384.118 348.613C384.118 352.117 383.48 353.627 382.597 355.716C381.5 358.313 380.134 361.546 380.134 367.471C380.134 373.397 381.5 376.629 382.597 379.227C383.48 381.316 384.118 382.826 384.118 386.33C384.118 389.835 383.48 391.345 382.597 393.435C381.5 396.033 380.134 399.266 380.134 405.192C380.134 411.118 381.5 414.35 382.597 416.948C383.028 417.968 383.401 418.851 383.67 419.895L364.299 426.352C361.167 427.396 359.475 430.781 360.518 433.912C361.353 436.417 363.685 438 366.187 438C366.814 438 367.451 437.9 368.078 437.692L391.984 429.723C394.425 428.909 396.071 426.625 396.071 424.053C396.071 418.127 394.705 414.894 393.608 412.296C392.725 410.206 392.086 408.696 392.086 405.192C392.086 401.687 392.725 400.177 393.608 398.087C394.705 395.489 396.071 392.256 396.071 386.33C396.071 380.404 394.705 377.172 393.608 374.574C392.725 372.485 392.086 370.975 392.086 367.471C392.086 363.968 392.724 362.458 393.608 360.369C394.705 357.772 396.071 354.539 396.071 348.613C396.071 342.687 394.705 339.455 393.608 336.858C392.725 334.768 392.086 333.258 392.086 329.755C392.086 326.251 392.725 324.741 393.608 322.652C394.263 321.101 395.013 319.317 395.511 316.874H432.489C432.988 319.318 433.737 321.103 434.393 322.654C435.276 324.744 435.914 326.254 435.914 329.758C435.914 333.263 435.276 334.773 434.393 336.863C433.296 339.461 431.93 342.694 431.93 348.62C431.93 354.546 433.296 357.778 434.393 360.376C435.276 362.465 435.914 363.975 435.914 367.479C435.914 370.982 435.277 372.492 434.393 374.582C433.296 377.179 431.93 380.411 431.93 386.337C431.93 392.263 433.296 395.495 434.393 398.092C435.276 400.181 435.914 401.691 435.914 405.195C435.914 408.699 435.276 410.209 434.393 412.298C433.296 414.895 431.93 418.128 431.93 424.053C431.93 426.626 433.576 428.91 436.016 429.723L459.923 437.692C460.55 437.9 461.186 438 461.814 438C464.316 438 466.647 436.417 467.483 433.912C468.526 430.78 466.834 427.395 463.702 426.352L444.331 419.895C444.6 418.852 444.972 417.971 445.404 416.951C446.501 414.354 447.867 411.121 447.867 405.195C447.867 399.269 446.501 396.037 445.404 393.44C444.521 391.35 443.882 389.84 443.882 386.337C443.882 382.833 444.521 381.323 445.404 379.234C446.501 376.637 447.867 373.405 447.867 367.479C447.867 361.554 446.501 358.321 445.404 355.724C444.521 353.634 443.882 352.124 443.882 348.62C443.882 345.116 444.521 343.606 445.404 341.515C446.501 338.918 447.867 335.685 447.867 329.758C447.867 323.832 446.501 320.6 445.404 318.002C445.239 317.612 445.082 317.241 444.937 316.874H461.812C465.113 316.874 467.789 314.199 467.789 310.897V270.786C467.789 258.457 463.56 246.548 455.835 236.994V189.374H487.71C505.286 189.374 519.585 175.075 519.585 157.499C519.585 139.923 505.288 125.624 487.712 125.624ZM384.118 183.397C384.118 177.904 388.587 173.436 394.079 173.436H433.923C439.416 173.436 443.884 177.904 443.884 183.397V233.202H384.118V183.397ZM455.837 270.786V304.921H372.165V270.786C372.165 261.473 375.277 252.474 380.962 245.155H447.04C452.725 252.474 455.837 261.474 455.837 270.786Z" fill="black"/>
<path d="M446.055 80.8485C445.892 80.6333 445.719 80.4254 445.523 80.2293C441.716 75.8768 437.059 72.3275 431.799 69.8453C435.594 65.6115 437.907 60.0254 437.907 53.9062C437.907 40.7243 427.183 30 414.001 30C400.819 30 390.095 40.7243 390.095 53.9062C390.095 60.0254 392.408 65.6115 396.203 69.8453C390.944 72.3275 386.287 75.8768 382.502 80.2094C382.283 80.4246 382.11 80.6333 381.947 80.8485C375.848 88.12 372.165 97.484 372.165 107.694C372.165 130.762 390.933 149.53 414.001 149.53C437.07 149.53 455.837 130.762 455.837 107.694C455.837 97.484 452.155 88.12 446.055 80.8485ZM414.001 41.9523C420.592 41.9523 425.954 47.3145 425.954 53.9054C425.954 60.4963 420.592 65.8585 414.001 65.8585C407.41 65.8585 402.048 60.4963 402.048 53.9054C402.048 47.3145 407.41 41.9523 414.001 41.9523ZM414.001 77.8116C420.913 77.8116 427.279 80.1767 432.347 84.1316C421.319 91.6382 406.684 91.6382 395.656 84.1316C400.724 80.1767 407.09 77.8116 414.001 77.8116ZM414.001 137.577C397.523 137.577 384.118 124.172 384.118 107.694C384.118 102.461 385.475 97.5406 387.848 93.2582C395.617 98.8937 404.809 101.717 414.001 101.717C423.194 101.717 432.385 98.8937 440.155 93.2582C442.528 97.5406 443.884 102.461 443.884 107.694C443.884 124.172 430.479 137.577 414.001 137.577Z" fill="black"/>
</g>
<defs>
<clipPath id="clip0_0_1">
<rect width="212" height="408" fill="white" transform="translate(308 30)"/>
</clipPath>
</defs>
</svg>
