<svg width="374" height="410" viewBox="0 0 374 410" fill="none" xmlns="http://www.w3.org/2000/svg">
<rect width="374" height="410" rx="20" fill="#EBEBEB"/>
<g opacity="0.08">
<path d="M358.597 370.665L334.208 355.15C331.113 353.197 326.964 353.84 324.676 356.627L317.571 365.34C316.658 366.488 314.999 366.821 313.678 366.121L312.326 365.411C307.846 363.082 302.272 360.182 291.041 349.465C279.81 338.749 276.764 333.428 274.322 329.163L273.581 327.874C272.837 326.614 273.18 325.024 274.384 324.146L283.513 317.372C286.434 315.189 287.108 311.233 285.063 308.28L268.798 285.016C266.702 282.009 262.497 281.106 259.252 282.966L249.053 288.81C245.849 290.607 243.498 293.517 242.493 296.931C238.821 309.695 241.583 331.723 275.604 364.177C302.666 389.988 322.812 396.93 336.66 396.93C339.847 396.943 343.021 396.547 346.098 395.754C349.677 394.797 352.729 392.554 354.612 389.496L360.744 379.774C362.698 376.678 361.752 372.665 358.597 370.665ZM357.284 377.809L351.166 387.537C349.814 389.744 347.619 391.366 345.041 392.065C332.688 395.3 311.105 392.62 278.445 361.467C245.784 330.314 242.975 309.729 246.367 297.944C247.1 295.483 248.803 293.386 251.12 292.095L261.318 286.259C262.726 285.451 264.552 285.842 265.461 287.147L274.296 299.8L281.712 310.409C282.6 311.69 282.308 313.407 281.042 314.355L271.911 321.13C269.132 323.156 268.339 326.823 270.05 329.733L270.775 330.99C273.341 335.479 276.532 341.064 288.18 352.174C299.829 363.283 305.682 366.326 310.387 368.774L311.706 369.467C314.757 371.099 318.602 370.342 320.726 367.692L327.829 358.983C328.823 357.775 330.622 357.497 331.965 358.343L356.353 373.857C357.722 374.724 358.132 376.466 357.284 377.809Z" fill="black"/>
<path d="M309.539 301.163C328.384 301.183 343.655 315.749 343.676 333.724C343.676 334.782 344.575 335.639 345.684 335.639C346.793 335.639 347.692 334.782 347.692 333.724C347.668 313.634 330.601 297.354 309.539 297.332C308.43 297.332 307.531 298.19 307.531 299.248C307.531 300.305 308.43 301.163 309.539 301.163Z" fill="black"/>
<path d="M309.539 312.654C321.732 312.668 331.613 322.093 331.628 333.723C331.628 334.781 332.527 335.638 333.636 335.638C334.745 335.638 335.644 334.781 335.644 333.723C335.627 319.978 323.949 308.839 309.539 308.823C308.43 308.823 307.531 309.681 307.531 310.739C307.531 311.797 308.43 312.654 309.539 312.654Z" fill="black"/>
<path d="M309.539 324.147C315.081 324.153 319.573 328.437 319.579 333.724C319.579 334.782 320.479 335.639 321.587 335.639C322.696 335.639 323.595 334.782 323.595 333.724C323.586 326.323 317.299 320.325 309.539 320.316C308.43 320.316 307.531 321.174 307.531 322.232C307.531 323.289 308.43 324.147 309.539 324.147Z" fill="black"/>
</g>
</svg>
