<svg width="1200" height="400" viewBox="0 0 1200 400" fill="none" xmlns="http://www.w3.org/2000/svg">
<rect width="1200" height="400" rx="20" fill="#EBEBEB"/>
<g opacity="0.08">
<path d="M1173.61 245.813L1116.11 209.241C1108.81 204.637 1099.03 206.152 1093.64 212.722L1076.89 233.261C1074.74 235.968 1070.83 236.753 1067.71 235.103L1064.53 233.428C1053.97 227.938 1040.83 221.102 1014.35 195.84C987.877 170.577 980.696 158.034 974.94 147.979L973.193 144.94C971.44 141.971 972.247 138.223 975.086 136.154L996.605 120.184C1003.49 115.038 1005.08 105.712 1000.26 98.7504L961.917 43.9093C956.976 36.8202 947.063 34.6921 939.414 39.0779L915.372 52.8536C907.818 57.0897 902.276 63.9502 899.908 71.9976C891.25 102.087 897.763 154.015 977.96 230.52C1041.76 291.366 1089.25 307.729 1121.89 307.729C1129.4 307.76 1136.89 306.828 1144.14 304.957C1152.58 302.701 1159.77 297.414 1164.21 290.206L1178.67 267.288C1183.27 259.99 1181.04 250.529 1173.61 245.813ZM1170.51 262.655L1156.09 285.587C1152.9 290.789 1147.73 294.614 1141.65 296.261C1112.53 303.887 1061.65 297.571 984.658 224.132C907.665 150.692 901.044 102.168 909.039 74.3866C910.767 68.5832 914.783 63.6418 920.243 60.5972L944.285 46.8396C947.604 44.9348 951.907 45.8581 954.051 48.9344L974.879 78.7613L992.36 103.771C994.454 106.79 993.766 110.838 990.779 113.072L969.256 129.042C962.706 133.819 960.835 142.464 964.868 149.324L966.577 152.286C972.627 162.87 980.148 176.036 1007.61 202.224C1035.07 228.412 1048.87 235.586 1059.96 241.357L1063.07 242.991C1070.26 246.837 1079.32 245.053 1084.33 238.806L1101.07 218.275C1103.42 215.428 1107.66 214.773 1110.82 216.767L1168.31 253.34C1171.54 255.383 1172.51 259.489 1170.51 262.655Z" fill="black"/>
<path d="M1057.96 81.9721C1102.38 82.0192 1138.38 116.357 1138.43 158.73C1138.43 161.224 1140.55 163.245 1143.16 163.245C1145.78 163.245 1147.9 161.224 1147.9 158.73C1147.84 111.372 1107.61 72.994 1057.96 72.9421C1055.34 72.9421 1053.23 74.9634 1053.23 77.4571C1053.23 79.9509 1055.34 81.9721 1057.96 81.9721Z" fill="black"/>
<path d="M1057.96 109.063C1086.7 109.095 1110 131.313 1110.03 158.73C1110.03 161.224 1112.15 163.245 1114.76 163.245C1117.38 163.245 1119.5 161.224 1119.5 158.73C1119.46 126.328 1091.93 100.07 1057.96 100.033C1055.34 100.033 1053.23 102.054 1053.23 104.548C1053.23 107.042 1055.34 109.063 1057.96 109.063Z" fill="black"/>
<path d="M1057.96 136.154C1071.02 136.169 1081.61 146.267 1081.63 158.73C1081.63 161.224 1083.75 163.245 1086.36 163.245C1088.97 163.245 1091.09 161.224 1091.09 158.73C1091.07 141.283 1076.25 127.143 1057.96 127.124C1055.34 127.124 1053.23 129.145 1053.23 131.639C1053.23 134.133 1055.34 136.154 1057.96 136.154Z" fill="black"/>
</g>
</svg>
