<svg width="168" height="238" viewBox="0 0 168 238" fill="none" xmlns="http://www.w3.org/2000/svg">
<path d="M27.7987 3.27994C26.4197 3.34935 25.3581 4.52349 25.4275 5.90246C25.497 7.28143 26.6711 8.34303 28.0501 8.27361L27.7987 3.27994ZM3.94109 195.222C2.86372 196.085 2.69035 197.659 3.55385 198.736L17.6254 216.293C18.489 217.37 20.0623 217.544 21.1397 216.68C22.2171 215.817 22.3905 214.243 21.5269 213.166L9.01887 197.56L24.6249 185.052C25.7023 184.188 25.8756 182.615 25.0121 181.538C24.1486 180.46 22.5752 180.287 21.4979 181.15L3.94109 195.222ZM37.9402 7.96697C39.3208 7.95163 40.4276 6.81997 40.4123 5.43935C40.3969 4.05872 39.2653 2.95194 37.8846 2.96728L37.9402 7.96697ZM57.704 3.59403C56.3274 3.48783 55.1253 4.5177 55.0191 5.89432C54.9129 7.27094 55.9428 8.47301 57.3194 8.57922L57.704 3.59403ZM76.4349 11.0451C77.7926 11.2965 79.0969 10.3996 79.3483 9.04201C79.5996 7.68436 78.7028 6.38002 77.3452 6.12867L76.4349 11.0451ZM96.788 11.0153C95.4747 10.5892 94.0646 11.3084 93.6385 12.6217C93.2123 13.935 93.9315 15.3451 95.2449 15.7712L96.788 11.0153ZM112.98 23.0706C114.209 23.6989 115.715 23.2117 116.344 21.9823C116.972 20.7528 116.485 19.2468 115.255 18.6184L112.98 23.0706ZM132.25 29.4169C131.164 28.5648 129.592 28.7547 128.74 29.8411C127.888 30.9276 128.078 32.499 129.164 33.3511L132.25 29.4169ZM142.767 46.6653C143.637 47.7375 145.211 47.9015 146.283 47.0316C147.356 46.1617 147.52 44.5873 146.65 43.5151L142.767 46.6653ZM157.375 60.6359C156.793 59.384 155.306 58.8411 154.054 59.4233C152.802 60.0056 152.259 61.4925 152.842 62.7444L157.375 60.6359ZM158.607 80.8098C158.858 82.1675 160.162 83.0645 161.52 82.8133C162.878 82.5622 163.775 81.258 163.523 79.9003L158.607 80.8098ZM164.732 100.071C164.816 98.6929 163.767 97.5074 162.389 97.4232C161.011 97.3389 159.826 98.3879 159.742 99.766L164.732 100.071ZM156.396 118.507C156.002 119.83 156.756 121.222 158.079 121.616C159.403 122.01 160.795 121.257 161.189 119.933L156.396 118.507ZM153.414 138.514C154.077 137.303 153.632 135.784 152.421 135.121C151.209 134.459 149.69 134.904 149.028 136.115L153.414 138.514ZM138.228 151.918C137.343 152.978 137.485 154.554 138.544 155.439C139.604 156.324 141.181 156.182 142.066 155.123L138.228 151.918ZM127.831 169.312C128.891 168.428 129.034 166.851 128.15 165.791C127.265 164.731 125.689 164.588 124.629 165.472L127.831 169.312ZM108.931 176.482C107.74 177.181 107.341 178.713 108.04 179.904C108.739 181.095 110.271 181.493 111.462 180.794L108.931 176.482ZM93.477 189.594C94.7583 189.079 95.38 187.624 94.8657 186.342C94.3513 185.061 92.8956 184.439 91.6143 184.954L93.477 189.594ZM73.2836 190.902C71.9453 191.241 71.1355 192.601 71.475 193.94C71.8144 195.278 73.1745 196.088 74.5128 195.748L73.2836 190.902ZM54.8457 199.483C56.2149 199.305 57.1805 198.05 57.0026 196.681C56.8246 195.312 55.5703 194.346 54.2012 194.524L54.8457 199.483ZM34.9586 195.989C33.5783 196.024 32.4872 197.171 32.5217 198.551C32.5561 199.931 33.7029 201.022 35.0832 200.988L34.9586 195.989ZM15.2492 200.549C16.6268 200.642 17.8187 199.6 17.9115 198.223C18.0043 196.845 16.9628 195.653 15.5852 195.56L15.2492 200.549ZM28.0501 8.27361C31.415 8.10423 34.7116 8.00285 37.9402 7.96697L37.8846 2.96728C34.5892 3.0039 31.2273 3.10735 27.7987 3.27994L28.0501 8.27361ZM57.3194 8.57922C64.0396 9.09767 70.4098 9.92963 76.4349 11.0451L77.3452 6.12867C71.1374 4.97938 64.5915 4.12539 57.704 3.59403L57.3194 8.57922ZM95.2449 15.7712C101.656 17.8514 107.564 20.3025 112.98 23.0706L115.255 18.6184C109.592 15.7239 103.438 13.1731 96.788 11.0153L95.2449 15.7712ZM129.164 33.3511C134.382 37.4432 138.91 41.911 142.767 46.6653L146.65 43.5151C142.551 38.463 137.754 33.7336 132.25 29.4169L129.164 33.3511ZM152.842 62.7444C155.546 68.5587 157.462 74.6187 158.607 80.8098L163.523 79.9003C162.303 73.3008 160.259 66.8374 157.375 60.6359L152.842 62.7444ZM159.742 99.766C159.359 106.031 158.239 112.316 156.396 118.507L161.189 119.933C163.137 113.386 164.326 106.726 164.732 100.071L159.742 99.766ZM149.028 136.115C146.034 141.587 142.43 146.885 138.228 151.918L142.066 155.123C146.474 149.844 150.262 144.277 153.414 138.514L149.028 136.115ZM124.629 165.472C119.864 169.445 114.628 173.137 108.931 176.482L111.462 180.794C117.392 177.312 122.852 173.463 127.831 169.312L124.629 165.472ZM91.6143 184.954C85.8539 187.266 79.7419 189.264 73.2836 190.902L74.5128 195.748C81.1817 194.057 87.5056 191.991 93.477 189.594L91.6143 184.954ZM54.2012 194.524C48.0426 195.325 41.6271 195.823 34.9586 195.989L35.0832 200.988C41.9207 200.817 48.5098 200.306 54.8457 199.483L54.2012 194.524ZM15.5852 195.56C12.3669 195.343 9.09783 195.054 5.77843 194.688L5.23078 199.658C8.61952 200.031 11.9591 200.327 15.2492 200.549L15.5852 195.56ZM27.673 0.783098C24.9151 0.921925 22.7919 3.27021 22.9307 6.02814C23.0695 8.78608 25.4178 10.9093 28.1758 10.7705L27.673 0.783098ZM2.37759 193.271C0.222843 194.998 -0.123913 198.145 1.6031 200.3L29.7463 235.413C31.4733 237.568 34.6201 237.915 36.7748 236.188C38.9296 234.461 39.2763 231.314 37.5493 229.159L12.5331 197.947L43.7452 172.931C45.8999 171.204 46.2467 168.057 44.5196 165.902C42.7926 163.748 39.6459 163.401 37.4911 165.128L2.37759 193.271ZM37.968 10.4668C40.7292 10.4361 42.9428 8.17282 42.9121 5.41157C42.8814 2.65031 40.6181 0.436751 37.8569 0.467436L37.968 10.4668ZM57.8963 1.10144C55.1431 0.889028 52.7389 2.94878 52.5265 5.70202C52.3141 8.45526 54.3739 10.8594 57.1271 11.0718L57.8963 1.10144ZM75.9798 13.5033C78.6951 14.006 81.3038 12.2124 81.8065 9.49712C82.3092 6.78183 80.5156 4.17314 77.8003 3.67044L75.9798 13.5033ZM97.5596 8.63736C94.933 7.7851 92.1128 9.2235 91.2605 11.8501C90.4083 14.4767 91.8467 17.2969 94.4733 18.1492L97.5596 8.63736ZM111.842 25.2966C114.301 26.5534 117.313 25.5789 118.57 23.12C119.826 20.6612 118.852 17.6491 116.393 16.3923L111.842 25.2966ZM133.793 27.4498C131.62 25.7456 128.477 26.1255 126.773 28.2983C125.069 30.4711 125.449 33.614 127.622 35.3182L133.793 27.4498ZM140.825 48.2404C142.565 50.3848 145.714 50.7128 147.859 48.973C150.003 47.2331 150.331 44.0844 148.591 41.9399L140.825 48.2404ZM159.642 59.5817C158.478 57.0778 155.504 55.992 153 57.1565C150.496 58.321 149.41 61.2948 150.575 63.7987L159.642 59.5817ZM156.149 81.2646C156.651 83.9799 159.259 85.774 161.975 85.2716C164.69 84.7693 166.484 82.1609 165.982 79.4455L156.149 81.2646ZM167.228 100.224C167.396 97.4672 165.298 95.0963 162.542 94.9278C159.786 94.7594 157.415 96.8573 157.246 99.6135L167.228 100.224ZM154 117.794C153.212 120.44 154.719 123.225 157.366 124.012C160.013 124.8 162.797 123.293 163.585 120.647L154 117.794ZM155.607 139.714C156.933 137.291 156.043 134.253 153.62 132.928C151.198 131.603 148.159 132.492 146.834 134.915L155.607 139.714ZM136.309 150.315C134.539 152.435 134.822 155.588 136.942 157.358C139.062 159.128 142.215 158.845 143.985 156.725L136.309 150.315ZM129.432 171.232C131.552 169.464 131.838 166.311 130.07 164.19C128.301 162.069 125.148 161.783 123.028 163.552L129.432 171.232ZM107.665 174.326C105.283 175.724 104.486 178.788 105.884 181.17C107.283 183.551 110.346 184.348 112.728 182.95L107.665 174.326ZM94.4083 191.914C96.9709 190.885 98.2144 187.974 97.1857 185.411C96.157 182.848 93.2456 181.605 90.683 182.634L94.4083 191.914ZM72.669 188.479C69.9923 189.158 68.3728 191.878 69.0517 194.554C69.7306 197.231 72.4508 198.851 75.1275 198.172L72.669 188.479ZM55.168 201.962C57.9063 201.606 59.8377 199.097 59.4817 196.359C59.1257 193.621 56.6173 191.689 53.8789 192.045L55.168 201.962ZM34.8963 193.49C32.1357 193.559 29.9536 195.853 30.0224 198.613C30.0912 201.374 32.3849 203.556 35.1455 203.487L34.8963 193.49ZM15.0812 203.043C17.8363 203.229 20.2203 201.146 20.4059 198.391C20.5915 195.635 18.5084 193.251 15.7532 193.066L15.0812 203.043ZM28.1758 10.7705C31.5088 10.6027 34.7728 10.5023 37.968 10.4668L37.8569 0.467436C34.528 0.50443 31.1335 0.608907 27.673 0.783098L28.1758 10.7705ZM57.1271 11.0718C63.7637 11.5838 70.0459 12.4048 75.9798 13.5033L77.8003 3.67044C71.5012 2.50425 64.8674 1.63925 57.8963 1.10144L57.1271 11.0718ZM94.4733 18.1492C100.765 20.1906 106.55 22.5918 111.842 25.2966L116.393 16.3923C110.606 13.4347 104.329 10.8339 97.5596 8.63736L94.4733 18.1492ZM127.622 35.3182C132.696 39.298 137.089 43.6351 140.825 48.2404L148.591 41.9399C144.371 36.7389 139.44 31.8788 133.793 27.4498L127.622 35.3182ZM150.575 63.7987C153.189 69.4193 155.041 75.2777 156.149 81.2646L165.982 79.4455C164.723 72.6418 162.616 65.9768 159.642 59.5817L150.575 63.7987ZM157.246 99.6135C156.875 105.684 155.79 111.781 154 117.794L163.585 120.647C165.586 113.921 166.809 107.073 167.228 100.224L157.246 99.6135ZM146.834 134.915C143.92 140.242 140.409 145.406 136.309 150.315L143.985 156.725C148.495 151.324 152.376 145.622 155.607 139.714L146.834 134.915ZM123.028 163.552C118.37 167.436 113.247 171.049 107.665 174.326L112.728 182.95C118.774 179.4 124.346 175.472 129.432 171.232L123.028 163.552ZM90.683 182.634C85.0281 184.904 79.022 186.867 72.669 188.479L75.1275 198.172C81.9016 196.454 88.3315 194.353 94.4083 191.914L90.683 182.634ZM53.8789 192.045C47.8089 192.834 41.4803 193.326 34.8963 193.49L35.1455 203.487C42.0675 203.315 48.7435 202.797 55.168 201.962L53.8789 192.045ZM15.7532 193.066C12.5707 192.851 9.33698 192.565 6.05224 192.203L4.95697 202.143C8.38036 202.52 11.7553 202.819 15.0812 203.043L15.7532 193.066Z" fill="#AFAFAF"/>
</svg>
