<svg width="86" height="38" viewBox="0 0 86 38" fill="none" xmlns="http://www.w3.org/2000/svg">
<path d="M1.23608 31.0557L1.22172 30.8509C1.20333 30.5875 1.209 30.381 1.23789 30.2221C1.09704 29.9277 1.01728 29.6485 1.00006 29.4047C0.997419 29.3654 1.07872 29.0952 1.24337 28.584L1.44053 27.6783C1.55658 27.3275 1.61352 27.1373 1.63195 27.1164C1.50103 26.8211 1.42962 26.6594 1.42675 26.6203C1.39601 26.181 1.49064 25.812 1.72946 25.5016C1.95918 25.2018 2.14063 24.7874 2.28387 24.2581L2.74114 22.4819L3.54826 20.1233C3.56423 20.0634 3.64365 19.9111 3.78572 19.6463C3.93802 19.3911 4.06294 19.167 4.1504 18.9846C4.24708 18.7917 4.3783 18.5183 4.55398 18.1632L4.83925 18.0852C4.91353 18.002 4.94865 17.9309 4.94329 17.8528C4.94064 17.8138 4.88959 17.6602 4.79129 17.402L5.7029 15.6737L6.22562 14.4032C6.40254 14.0677 6.59695 13.8389 6.82969 13.7252C7.16964 12.9963 7.4788 12.5441 7.75776 12.3784C7.85228 12.009 8.03386 11.5949 8.32384 11.1537L8.86922 11.0682C8.94992 10.7882 9.03591 10.5862 9.11608 10.4436L9.13632 9.87352C9.1438 9.98087 9.19165 9.94829 9.27858 9.75605C9.36604 9.57352 9.48185 9.22272 9.64658 8.71149L10.3727 7.7704L10.5742 7.35493C10.6651 7.2212 10.8061 6.94706 10.989 6.55216C11.2809 6.42482 11.5055 6.19416 11.6837 5.8782L12.2581 5.34939C12.204 5.14687 12.4106 4.66235 12.8589 3.90664C13.1886 3.74734 13.4757 3.55163 13.7308 3.3285L14.1316 3.18399C14.0852 2.52019 14.3027 2.04468 14.7637 1.75879L15.1072 1.51033C15.4056 1.33335 15.5705 1.25377 15.6102 1.25093L15.8158 1.17848C16.04 1.08506 16.3165 1.02718 16.6258 1.00653C17.3443 0.958244 18.0212 1.17796 18.637 1.66615C19.2618 2.14405 19.5929 2.72008 19.6401 3.39363C19.6585 3.6571 19.528 3.94044 19.2591 4.25252L19.1551 4.48495C18.9589 5.5476 18.806 6.08743 18.6864 6.09549C18.6067 6.10073 18.5008 6.16671 18.3793 6.29246C18.3834 6.91983 18.368 7.27388 18.3334 7.35481C17.9884 7.43679 17.8387 7.87817 17.8947 8.67854C17.8631 8.79841 17.737 9.00314 17.5168 9.29235C17.2865 9.58241 17.1236 9.97573 17.0281 10.4724C16.9225 10.97 16.7899 11.2238 16.6401 11.2339L16.3109 11.2559L16.4309 11.6796C16.4493 11.9429 16.3379 12.2153 16.0962 12.4865C15.8454 12.7681 15.7042 13.0423 15.6647 13.339C15.6248 13.6263 15.4193 13.9834 15.0381 14.4109L14.7808 14.889C14.6748 15.0921 14.5288 15.2981 14.3543 15.5258C14.1691 15.744 14.0319 16.0768 13.9229 16.5254L13.2609 17.9526C12.7976 18.925 12.4295 19.3908 12.1571 19.37C12.0302 20.1336 11.9405 20.5713 11.8982 20.682C11.8466 20.803 11.7143 20.9198 11.5116 21.0314C11.2982 21.1339 11.1402 21.3112 11.0475 21.5626C10.9442 21.8048 10.8266 21.9892 10.7052 22.115L10.2502 23.2047C9.95039 23.3621 9.73812 23.6214 9.62369 23.992C9.31988 24.0909 9.14871 24.3671 9.09958 24.8115C9.02454 24.8854 8.93719 25.0677 8.84576 25.3384L7.88846 26.4129C7.38492 26.8095 7.13421 27.238 7.12726 27.7092C7.11998 28.1806 6.88693 28.4315 6.41799 28.4628C6.08869 28.485 5.58942 28.3713 4.92116 28.1317L4.87116 28.1351C4.82962 28.4028 4.71134 28.7147 4.52445 29.0508L4.68811 29.8147C4.69483 29.9122 4.58683 30.5177 4.34567 31.6517C4.52497 31.9242 4.61841 32.1139 4.62676 32.2312L4.61059 32.8598L4.81496 33.6306C4.94846 34.2495 5.20974 34.5456 5.57896 34.5209L6.28566 34.5912C6.32547 34.5886 6.55477 34.4261 6.98391 34.1131L8.02131 33.4648C8.06123 33.4622 8.08241 33.4804 8.08532 33.5196C8.2903 33.5842 8.44264 33.6131 8.56254 33.6051C8.752 33.5924 8.84086 33.4296 8.81979 33.127L8.79365 32.756C8.90048 32.5627 9.03183 32.4361 9.18896 32.3863C9.35577 32.336 9.49919 32.238 9.63023 32.1018C9.75031 31.9564 9.85511 31.8809 9.93498 31.8756L10.2246 31.8561C10.5138 31.8368 10.6403 31.4948 10.5938 30.8312C10.6708 30.7868 10.7651 30.7019 10.8666 30.5774L11.216 30.5539C11.3757 30.5433 11.5322 30.3465 11.6858 29.9635C11.8495 29.5799 11.9635 29.3467 12.0378 29.2633C12.3844 29.2009 12.6197 29.1262 12.7547 29.0485C13.2955 27.8942 13.7362 27.3157 14.0654 27.2937L14.245 27.2815C14.5523 26.9469 14.7135 26.6714 14.7264 26.4255C14.74 26.1891 14.8187 26.0269 14.9829 25.9376C15.1371 25.8488 15.29 25.7405 15.4122 25.6245C15.5435 25.498 15.6294 25.4334 15.6693 25.4309C15.9588 25.4114 16.1058 25.5092 16.1201 25.7144L16.0963 26.52L16.3563 27.3656C16.3617 27.4437 16.292 27.5955 16.1381 27.8313C15.9936 28.0569 15.9208 28.3068 15.9393 28.5704C15.9781 29.1267 15.9089 29.4255 15.712 29.4781C15.5252 29.5298 15.3744 29.6674 15.2605 29.9006C15.1458 30.1238 14.9505 30.3431 14.6735 30.5381C14.3972 30.7428 14.1861 31.0219 14.0603 31.3735L13.5696 31.5241L13.2919 31.7093C13.1039 32.3202 12.8799 32.6982 12.63 32.8522C12.3695 32.997 12.078 33.4186 11.7363 34.1183C11.6762 34.1223 11.6476 34.1436 11.6505 34.1828L11.1775 34.1558C11.029 34.4696 10.8616 34.6574 10.6962 34.7272C10.5205 34.7979 10.3785 34.9153 10.2804 35.0887C10.1722 35.2625 9.97222 35.4132 9.68095 35.5503C9.38926 35.6778 9.20921 35.8273 9.14037 35.9887C9.07092 36.1406 8.9572 36.2363 8.80894 36.266C8.65075 36.2962 8.51553 36.3737 8.38483 36.5101C8.25402 36.6465 8.14846 36.7122 8.04861 36.7189C8.00866 36.7215 7.86769 36.7114 7.63552 36.6879L7.51563 36.6959C7.20283 36.9521 6.9409 37.0774 6.73139 37.0915C6.47191 37.109 6.29507 37.16 6.18076 37.2462C6.05549 37.1761 5.8717 37.1296 5.62968 37.1066C5.38807 37.0934 5.10185 37.0144 4.78154 36.8791C4.45776 36.9793 4.25115 37.0321 4.17128 37.0375C3.84191 37.0596 3.40011 36.7654 2.85696 36.1647C2.30301 35.5545 2.00993 34.9466 1.96752 34.3412C1.96601 34.3217 1.84603 34.1827 1.59661 33.9149C1.35813 33.6563 1.21712 33.3618 1.19454 33.0397L1.17475 32.7568L1.21051 32.411L1.17238 31.8645L1.21992 31.6847C1.50658 31.6263 1.65431 31.5869 1.6514 31.5478L1.23608 31.0558V31.0557ZM6.63283 23.0842L7.21751 22.7017C7.27552 22.3842 7.50962 22.0054 7.90871 21.5473C8.30775 21.0891 8.59195 20.8544 8.76174 20.8429L9.00101 20.827C8.99134 20.6902 9.01257 20.5613 9.06287 20.4207C9.10332 20.2807 9.12087 20.103 9.10441 19.8687C9.09689 19.7612 9.34364 19.4212 9.83702 18.8781L10.0304 18.3455C10.1751 17.8356 10.5753 17.3968 11.2614 17.0273C11.4925 16.4626 11.6822 16.1656 11.8119 16.1569L12.0481 16.0921C12.1074 15.7937 12.2392 15.53 12.463 15.2894L12.5603 15.1064L12.5282 14.6475C12.5255 14.6087 12.6543 14.4431 12.8946 14.1525C13.1349 13.8617 13.3061 13.5854 13.4095 13.3431C13.512 13.0911 13.6588 12.8949 13.8494 12.7547C14.0494 12.604 14.1726 12.3603 14.2285 12.0134L14.6935 11.9235C14.6758 11.6697 14.6848 11.512 14.7191 11.4313L14.7593 11.1444C14.8326 10.9039 15.1301 10.2857 15.6505 9.27027L16.0457 8.18478C16.0375 8.0676 16.1077 7.92552 16.2665 7.75796C16.4144 7.5813 16.488 7.34108 16.4667 7.03845L16.6298 6.07642C16.5991 5.63715 16.5043 5.42762 16.3546 5.43767C16.1646 5.58773 15.9912 5.68754 15.8256 5.75758C15.6701 5.82681 15.5344 6.17916 15.4191 6.82423C14.8494 6.98988 14.5291 7.28592 14.4681 7.70195C14.4069 8.11798 14.1921 8.48541 13.8227 8.79453L13.6469 9.14954C13.6215 9.35718 13.4476 9.59435 13.134 9.84086C12.8212 10.0973 12.5392 10.5083 12.2781 11.0751C11.4026 12.4579 10.9128 13.1966 10.8199 13.3009L10.5547 13.662L10.1114 13.6327C10.2125 13.9299 10.2647 14.1029 10.2673 14.1422C10.2755 14.2592 10.2233 14.3706 10.1111 14.486C9.99801 14.5917 9.92716 14.7238 9.87814 14.8842C9.8292 15.0443 9.72196 15.2281 9.56588 15.4344C9.40059 15.6515 9.2637 15.9843 9.14542 16.4434C9.03633 16.892 8.91514 17.1649 8.81068 17.2504L8.3977 17.2192C8.14911 17.3928 8.04027 17.5569 8.05054 17.7034L8.15843 18.0983C8.16368 18.1763 8.1201 18.2677 8.01788 18.3823C7.92551 18.4963 7.83023 18.7086 7.7615 19.0173C7.68296 19.3264 7.46585 19.8019 7.1202 20.4527C6.7741 21.0938 6.5113 21.7782 6.34035 22.4859C6.1692 23.1938 5.98069 23.6476 5.77472 23.8577C5.81732 23.894 5.87846 23.9094 5.95833 23.9041C6.20784 23.8874 6.42879 23.6079 6.63283 23.0842ZM25.5105 11.9244L25.253 10.8236L25.2405 10.648C25.1784 9.7597 25.453 9.24115 26.0747 9.10136C26.2031 9.0734 26.6133 8.9181 27.2763 8.64813C27.631 8.70281 28.0212 8.98094 28.4366 9.47277C28.8527 9.97447 29.0743 10.4204 29.1022 10.8206C29.1053 10.8596 29.0813 10.9497 29.0304 11.0805C28.9801 11.221 28.9579 11.4776 28.9639 11.8497C28.9799 12.2214 28.803 12.557 28.4636 12.8642C28.1234 13.1616 27.7539 13.3234 27.3449 13.3508C27.0654 13.3696 26.7132 13.2071 26.258 12.8647C25.813 12.5219 25.5702 12.2047 25.5105 11.9244ZM13.8799 27.0803L14.3211 26.6486L14.5006 26.6367C14.6401 26.6274 14.8295 26.4676 15.089 26.1657L15.3704 26.0294C15.7298 25.4364 16.0458 25.0819 16.3385 24.9641L16.7835 24.5911C16.8577 24.5076 16.9628 24.4319 17.1081 24.3635C17.2538 24.2947 17.4704 24.094 17.7777 23.7595C18.0753 23.4259 18.3337 23.2516 18.5233 23.2387C18.7228 23.2253 18.8838 23.2342 19.0064 23.2654C19.0997 23.0236 19.3236 22.7831 19.6579 22.5448C20.0012 22.2963 20.272 22.0135 20.4604 21.6969L20.8379 21.5048C21.1364 21.3281 21.4021 21.1141 21.6351 20.8629C21.8576 20.6028 22.1687 20.4644 22.5678 20.4377C23.1365 20.3997 23.7449 20.6431 24.4028 21.1582C25.051 21.6834 25.3979 22.1996 25.4341 22.717L25.0916 24.9856C24.8771 26.6475 24.5682 27.5312 24.1644 27.6368L24.0865 28.2401C23.8307 28.4535 23.7021 28.6189 23.7097 28.7262L23.9377 29.4072C23.9439 29.4951 23.8442 29.6491 23.6485 29.8583C23.6084 29.8609 23.5928 29.9207 23.6003 30.0282L23.6822 31.1996C23.6973 31.4141 23.5698 31.5993 23.3093 31.7441C23.3519 31.7806 23.4148 31.8156 23.4871 31.85C23.5987 31.7248 23.854 31.6489 24.263 31.6215L24.7361 31.6486L25.331 30.9812C25.4579 30.9334 25.6415 30.8328 25.8707 30.6704C26.1 30.5078 26.4961 30.2952 27.0589 30.0318L30.6499 26.908C31.1325 26.3559 31.5138 26.0754 31.7833 26.0572C32.0726 26.038 32.2253 26.2139 32.2507 26.5751C32.2801 26.9949 32.2243 27.342 32.0744 27.6363C31.9339 27.9202 31.7973 28.2631 31.695 28.6619C31.5827 29.0618 31.4421 29.3458 31.2727 29.5044C31.0941 29.6731 30.956 29.8491 30.8492 30.0426C30.7518 30.2255 30.4509 30.5107 29.956 30.8869C29.4712 31.2627 29.0565 31.6435 28.722 32.019C28.3874 32.3944 28.1057 32.6682 27.8773 32.8406L26.6916 33.8026L26.5324 34.1074C26.4951 34.1491 26.3209 34.2393 26.0106 34.3877C25.6996 34.526 25.4211 34.7017 25.1854 34.9136L24.6764 35.2321C24.5719 35.3175 24.3758 35.3797 24.1177 35.4167C23.8596 35.4536 23.6379 35.5763 23.4524 35.7945C23.2768 36.0026 23.1237 36.1108 23.0141 36.1183L22.571 36.0891L21.9945 36.3043C21.6651 36.3262 21.2524 36.1578 20.7461 35.7993C20.2399 35.4409 19.9709 35.0375 19.9402 34.5982L19.9285 34.4323L19.9604 34.0281C19.955 33.95 19.8813 33.7587 19.74 33.4542C19.6075 33.1396 19.5353 32.9679 19.5326 32.929L19.5643 32.5247L19.4929 32.3629C19.4567 31.8455 19.4741 31.5207 19.5443 31.3788C19.6048 31.2372 19.6516 31.048 19.6749 30.811C19.6979 30.5641 19.7241 30.3663 19.7538 30.2173L19.843 29.4855C19.907 29.2556 19.9958 29.0928 20.1108 29.0165C20.1397 28.8576 20.1918 28.5993 20.2857 28.2202L20.3697 27.7046L20.6311 27.285C20.7799 27.1182 20.8555 26.9072 20.8676 26.6513C20.879 26.3858 20.9596 26.1058 21.1194 25.8107C21.2692 25.5163 21.3467 25.3347 21.3427 25.2762C21.3269 25.0516 21.209 24.9419 20.9694 24.9578C20.8895 24.9633 20.6611 25.1353 20.2733 25.4653L19.7322 25.3251C19.692 25.3277 19.5891 25.4327 19.4331 25.6393C19.4387 25.7174 19.3525 25.7722 19.1754 25.8234C18.9986 25.8744 18.8491 26.0314 18.7067 26.2863L18.4812 26.3602L18.0805 26.2204L17.9706 26.2278C17.7712 26.2411 17.6657 26.454 17.6552 26.8765C17.4675 27.2028 17.2018 27.4167 16.8494 27.5383L16.2223 27.7472C16.0084 27.8399 15.871 28.0257 15.7898 28.296C15.7091 28.5761 15.5265 28.8333 15.2522 29.0674C14.9786 29.3113 14.7864 29.4322 14.6867 29.4388C14.138 29.4755 13.848 29.2008 13.8062 28.6054L13.9522 27.2521L13.8799 27.0803ZM58.0549 28.4355L58.1747 28.4274L58.4715 28.5154C58.5115 28.5128 58.5501 28.4907 58.5872 28.4488C58.5647 28.1268 58.6952 27.8434 58.9989 27.5975C59.0734 27.2297 59.273 26.932 59.5994 26.7238C59.9248 26.5059 60.4417 26.1573 61.1594 25.6679L61.8439 24.9944L62.1809 24.7953L62.4007 24.4963C62.593 24.2382 62.7939 24.0973 62.9934 24.084C63.2826 24.0645 63.4398 24.1619 63.4541 24.3667L63.2252 24.9608L63.4105 25.8897C63.4344 26.2315 63.3366 26.5519 63.1056 26.8321C62.8844 27.1117 62.5325 27.5276 62.07 28.0782L60.6814 29.7209L59.921 30.1739C59.7396 30.3037 59.5689 30.4426 59.4202 30.6093L58.349 31.6324C58.3674 31.8959 58.2912 32.0972 58.1312 32.2452L57.6621 32.2766L57.4311 32.4099C57.3266 32.7795 56.952 33.158 56.3075 33.5442L55.9179 33.8546C55.7965 33.9805 55.671 34.0477 55.5512 34.0558L54.7248 33.9935L54.1743 34.1481C54.0245 34.1581 53.8096 34.0941 53.5297 33.9658C53.2594 33.8268 52.9819 33.7279 52.7064 33.658C52.4307 33.5884 52.057 33.2603 51.5948 32.6734C51.1319 32.0769 50.8744 31.6919 50.8208 31.4995C50.8154 31.4213 50.7666 31.2971 50.6646 31.1275C50.5618 30.948 50.5144 30.8433 50.5116 30.8042C50.5089 30.7651 50.5757 30.5744 50.7312 30.2207L50.7272 30.1623C50.7231 30.1034 50.6637 29.9703 50.5395 29.7726C50.4147 29.5653 50.3471 29.3149 50.3259 29.0122C50.3137 28.8365 50.2387 28.6258 50.0998 28.3605C50.2491 28.2036 50.3209 28.0809 50.3154 28.0028C50.3101 27.9247 50.2723 27.8193 50.203 27.6867C50.1328 27.5443 50.0955 27.4389 50.0901 27.3608L50.1719 25.953L50.0015 25.2388L50.0135 24.5515C49.9856 24.1511 49.7922 23.968 49.4429 23.9915C49.2935 24.0015 49.1007 24.1125 48.8863 24.3426L48.6908 24.4147C48.1789 24.6939 47.8241 24.9238 47.6261 25.1036C47.4176 25.2746 47.2043 25.3772 46.9748 25.3924C46.8625 25.5078 46.6504 25.63 46.3181 25.7503L46.1002 25.9315C46.0259 26.0151 45.8844 26.142 45.6551 26.3047C45.6592 26.3633 45.3225 26.7096 44.6344 27.3341C43.9472 27.9685 43.3268 28.5592 42.7842 29.1154C42.241 29.662 41.8319 29.9737 41.5758 30.0398C41.3199 30.1061 41.2072 30.3586 41.2381 30.7979C41.2429 30.8661 41.0742 31.0346 40.7412 31.2921C40.7012 31.2946 40.516 31.5131 40.1763 31.9575C39.8514 31.7539 39.6635 31.6487 39.6235 31.6515C39.3741 31.6682 39.2064 31.9931 39.1403 32.6252C39.0384 32.8871 38.7392 33.0542 38.2345 33.1469C38.1959 33.1691 38.1363 33.32 38.0549 33.5903L37.9434 33.7156L37.654 33.735C37.6142 33.7375 37.482 33.8543 37.2676 34.0844C37.0438 34.3251 36.8537 34.4749 36.6783 34.5457C36.4651 35.0797 36.2633 35.3481 36.0838 35.3603C36.0139 35.365 35.8914 35.3339 35.7463 35.2652C35.5912 35.197 35.4067 35.1408 35.1837 35.1066C34.9702 35.0622 34.7141 34.8438 34.4253 34.4416C34.1274 34.0497 33.9729 33.707 33.953 33.4239C33.8034 31.2861 34.1412 30.0965 34.9664 29.855L35.0179 29.7339L35.0015 29.4996C34.9845 29.2556 35.0822 29.0725 35.3039 28.9499C35.5159 28.8278 35.7305 28.5977 35.9382 28.2697C36.1558 27.9414 36.293 27.7557 36.3702 27.7113L36.7494 27.686C36.8292 27.6806 36.8547 27.4728 36.8268 27.0728C36.8193 26.9653 36.8617 26.8546 36.9546 26.7503C37.0375 26.6468 37.0878 26.506 37.0955 26.329C37.1023 26.1423 37.2217 25.84 37.4622 25.4121C37.6929 24.9847 37.8057 24.7319 37.8003 24.6538L37.7321 24.5407C37.284 25.0121 36.9419 25.2801 36.7351 25.3332C36.5275 25.3765 36.248 25.6797 35.915 26.2219L35.44 26.1653C34.6629 26.8058 34.1769 27.1718 33.983 27.2632C33.7988 27.3539 33.595 27.5932 33.3907 27.9699C33.3983 28.0771 33.334 28.16 33.197 28.2084C33.0601 28.2568 32.8216 28.4296 32.4608 28.7187L32.2911 28.7301C31.8022 28.7626 31.5289 28.4377 31.4809 27.7546L31.9756 26.0838C32.1195 25.564 32.4978 25.0973 33.1319 24.7018C33.7559 24.3071 34.2813 23.9384 34.7072 23.5763C35.1337 23.2241 35.5712 23.0282 36.0187 22.9786L36.1986 22.6821C36.8393 22.3842 37.2611 21.9637 37.4634 21.4205C37.6553 20.8685 37.9563 20.5834 38.3655 20.556C39.4332 20.4845 40.2786 20.8202 40.9029 21.5727C41.5261 22.3153 41.8485 22.9117 41.8808 23.3703L41.9947 24.1374C42.0138 24.4107 41.9798 24.7858 41.8937 25.2721C41.6882 25.6289 41.5861 25.8908 41.5985 26.0666C41.6087 26.213 41.7139 26.2843 41.9035 26.2717C42.0232 26.2637 42.1773 26.1749 42.3554 25.9962C42.5441 25.8266 42.7532 25.6655 42.9832 25.5128C43.2131 25.3601 43.3454 25.2434 43.3783 25.1432C43.5458 24.671 43.863 24.3359 44.3398 24.1273C44.8071 23.9295 45.1062 23.7623 45.2078 23.6378L45.4913 23.3933L45.6909 22.9484C46.2033 22.6787 46.5382 22.4503 46.694 22.2437C46.8607 22.0463 47.0814 21.9039 47.3764 21.8253C47.662 21.7473 47.9796 21.5593 48.3288 21.2517L48.7598 21.1051L49.1525 20.8433C49.1896 20.8016 49.2967 20.7552 49.4921 20.6833C49.6776 20.612 49.9602 20.495 50.3291 20.3233C50.6979 20.1514 50.9526 20.0657 51.0924 20.0563C52.0802 19.99 52.8957 20.3278 53.5191 21.0705C54.1527 21.8126 54.4859 22.4179 54.5192 22.8962L54.4954 23.4175L54.6593 24.1812L54.6676 24.2985L54.5481 25.8853L54.6455 26.4183C54.7084 27.3161 54.5518 27.9445 54.1873 28.322C54.0897 28.3579 54.0565 28.4583 54.0674 28.6145L54.0852 28.8682L54.748 30.03C54.9571 30.4378 55.1011 30.634 55.2007 30.6272L56.121 30.3107C56.3949 30.2139 56.6008 30.0041 56.7579 29.6697C56.9121 29.581 57.1651 29.3286 57.5275 28.9219C57.6261 28.6115 57.7954 28.4528 58.0549 28.4355ZM66.9808 21.7573L67.5553 21.2285C68.0222 21.1677 68.2644 20.9063 68.2636 20.4651C68.2728 20.0232 68.5754 19.6204 69.1516 19.2582L69.4666 18.7468C69.7461 18.4437 70.5185 18.0194 71.7934 17.4729C72.1091 17.2556 72.327 17.0743 72.4258 16.9107C72.463 16.8691 72.5016 16.8469 72.5414 16.8441L73.0187 16.93C73.2682 16.9131 73.5928 16.8228 73.982 16.6593C74.3724 16.5056 74.7567 16.4112 75.126 16.3864L76.3492 16.2457C76.4292 16.2404 76.5928 16.2882 76.8505 16.3887C77.0975 16.4801 77.4008 16.5187 77.7501 16.4952C78.1793 16.4664 78.5919 16.6349 78.9779 16.9914C79.3638 17.3481 79.568 17.6876 79.5905 18.0096C79.6321 18.605 79.3645 19.2213 78.779 19.8781C78.1927 20.5256 77.7176 20.9007 77.3541 21.0034C77.0472 21.3476 76.8023 21.5698 76.6288 21.67C76.4653 21.769 76.2952 21.9177 76.1179 22.1061C75.9415 22.3042 75.7978 22.4023 75.678 22.4103C75.6081 22.4149 75.547 22.3993 75.5035 22.3532C75.4603 22.307 75.3985 22.2819 75.3186 22.2872C75.0092 22.3079 74.6867 22.712 74.3694 23.4785L73.8364 23.4555C73.5216 23.6825 73.3183 23.9315 73.2456 24.1815C73.1637 24.4419 72.9624 24.573 72.6529 24.5938C71.9745 25.3553 71.5101 25.7394 71.2607 25.7561C71.2209 25.7587 71.0784 25.729 70.8434 25.6664C70.6967 25.8626 70.6312 26.0728 70.6457 26.2778C70.662 26.5121 70.5119 26.6594 70.2048 26.7094L69.8502 27.0863L69.5468 27.0477L69.0096 27.6819C68.7102 27.702 68.4177 27.8196 68.1121 28.0362C68.0878 28.2633 68.0584 28.5597 68.0033 28.9164C67.9481 29.2731 67.9218 29.4709 67.9244 29.5101C67.9635 30.0663 68.5017 30.3049 69.5292 30.236L70.9225 29.9466C71.2917 29.9218 71.634 29.8009 71.9398 29.5842C72.246 29.3773 72.5886 29.2565 72.9577 29.2317C73.0773 29.2236 73.2542 29.1725 73.4781 29.079L73.7759 29.1768C73.8956 28.8845 74.1275 28.6138 74.4901 28.3543C74.8438 28.1049 75.1249 27.9685 75.3445 27.9537L75.6222 27.7686C75.6855 27.5288 75.7852 27.3751 75.9393 27.2863L76.1544 27.0659C76.3037 26.9088 76.4479 26.8208 76.5775 26.8121L76.9869 26.7847L77.1024 26.7179C77.3077 26.2139 77.6065 25.8997 78.0195 25.7837C78.4323 25.6679 78.6923 25.513 78.789 25.3202C78.8752 25.1185 79.0574 24.9984 79.334 24.9404C79.6006 24.8834 79.8212 24.7411 79.995 24.504C80.1596 24.2773 80.3747 24.0567 80.6306 23.8435C80.8971 23.6394 81.0761 23.4802 81.1798 23.3851C81.2727 23.2809 81.3691 23.2253 81.439 23.2207C81.5587 23.2126 81.6248 23.2965 81.6364 23.4624C81.6486 23.6381 81.6948 23.7232 81.7746 23.7181C81.8544 23.7126 81.8916 23.6708 81.8862 23.5927C81.8808 23.5147 81.8539 23.4184 81.8063 23.3137L81.7922 23.1087C81.7723 22.8256 81.909 22.6301 82.2216 22.511L83.4705 21.594C83.4826 21.1911 83.5857 20.9486 83.7613 20.8782C83.946 20.7971 84.0804 20.7097 84.174 20.6149C84.2576 20.5213 84.3645 20.4748 84.4842 20.4668C84.7337 20.45 84.8736 20.5877 84.8935 20.8711L84.7958 21.6228L84.9994 22.3839C85.0077 22.5009 84.9289 22.6632 84.7529 22.8712C84.5876 23.0881 84.4693 23.4001 84.3982 23.8167C84.327 24.2333 84.213 24.4665 84.0654 24.5059L83.8858 24.5179C83.5625 24.9121 83.2976 25.1361 83.1027 25.2175C82.898 25.2999 82.7465 25.4278 82.639 25.6116L81.7291 26.7904C81.5525 26.9885 81.395 27.1756 81.2665 27.3413C81.1469 27.4962 81.0427 27.5819 80.9628 27.5871L80.7176 27.378C80.7149 27.339 80.6736 27.322 80.5938 27.3274C80.3943 27.3407 80.282 27.4563 80.2485 27.6938C80.2142 27.9216 80.1289 28.1333 79.9908 28.3093C79.4213 28.622 79.0591 28.8915 78.9052 29.1274L78.7298 29.198L78.2007 29.2334C77.9516 29.25 77.7848 29.4476 77.721 29.8247C77.6473 30.2022 77.3827 30.4355 76.9279 30.525C76.4732 30.6142 76.1619 30.7527 75.9739 30.932C75.9368 30.9738 75.8497 31.019 75.7228 31.0665C75.5859 31.1151 75.3267 31.2796 74.9368 31.5802L72.5416 32.5939C72.3589 32.704 72.2324 32.7617 72.1725 32.7657L71.3625 32.9375C71.2428 32.9456 71.1277 32.8748 70.9968 32.7269C70.8668 32.5883 70.7815 32.5157 70.7516 32.5176L70.2343 32.719C69.8535 32.8622 69.4884 32.9456 69.139 32.969C68.9397 32.9824 68.7253 32.9279 68.4763 32.8073C68.2379 32.6958 68.0414 32.6109 67.9076 32.5611C67.3389 32.5991 66.9097 32.1965 66.6201 31.3528L66.2748 31.4347C66.1949 31.44 65.8884 30.7841 65.3443 29.4573C65.2136 29.3092 65.0165 29.2145 64.7624 29.163C64.5081 29.1115 64.3654 28.9345 64.3443 28.6321C64.2842 27.7729 64.4335 27.1844 64.7921 26.866C65.1509 26.5479 65.3446 26.3094 65.3734 26.1506L65.6788 24.6395C65.7545 24.5756 65.8408 24.3737 65.9278 24.0442L66.5224 22.7981C66.5926 22.6561 66.739 22.3129 66.9808 21.7573ZM72.9972 19.6281L72.6602 19.8273C72.583 19.8716 72.3653 20.053 72.0064 20.3712C71.6479 20.6896 71.2957 20.9583 70.9487 21.158C70.5925 21.3681 70.2561 21.8615 69.931 22.6581C69.6051 23.4448 69.4462 23.8967 69.4538 24.0042C69.4619 24.1212 69.526 24.1757 69.6459 24.1677L70.6036 23.6721C70.9604 23.4717 71.2946 23.2335 71.5954 22.9484C71.9055 22.6531 72.3421 22.3002 72.9241 21.8789L73.138 21.639C73.1722 21.5582 73.3423 21.4094 73.6474 21.1831C73.9522 20.9567 74.178 20.7454 74.3246 20.5492L74.606 20.4128C74.8989 19.8735 75.2165 19.5383 75.5473 19.3985C75.8792 19.2683 76.0504 19.1391 76.0423 19.0221C76.0267 18.7976 75.8288 18.6932 75.4598 18.7178C75.2999 18.7286 75.0772 18.8415 74.781 19.0477L74.1024 19.0931C74.0227 19.0985 73.8213 19.2296 73.4878 19.4775L72.9972 19.6281Z" fill="white" stroke="white" stroke-width="0.288" stroke-miterlimit="22.9256"/>
</svg>
